# xmcd
#
# Track frame offsets:
# 150
# 9817
# 23787
# 39915
# 53157
# 69800
# 82929
# 95092
# 107130
# 120697
# 133850
# 147850
#
# Disc length: 2157 seconds
#
#
# Revision: 0
# Processed by: cddbd v1.5.2PL0 Copyright (c) Steve Scherf et al.
# Submitted via: FreeRIP 2.945 
#
DISCID=92086b0c
DTITLE=High Plains Tradition - Prairie Wind
DYEAR=1997
DGENRE=Bluegrass
TTITLE0=Tupelo County Jail
TTITLE1=Say That You'll Always Love Me
TTITLE2=Dream of a Miner's Child
TTITLE3=Prairie Wind
TTITLE4=River of Sorrow
TTITLE5=I Turned and Walked Out the Door
TTITLE6=State Bridge
TTITLE7=Love's What Makes a House a Home
TTITLE8=You Can Never Go Back Home Again
TTITLE9=When He Reached Down His Hand
TTITLE10=Darby's Castle
TTITLE11=Jenny Dear
EXTD=
EXTT0=
EXTT1=
EXTT2=
EXTT3=
EXTT4=
EXTT5=
EXTT6=
EXTT7=
EXTT8=
EXTT9=
EXTT10=
EXTT11=
PLAYORDER=
